<svg width="55" height="74" viewBox="0 0 55 74" fill="none" xmlns="http://www.w3.org/2000/svg">
<path d="M52.1664 33.6696C53.6572 28.3912 54.4671 22.8839 53.8098 17.4534C52.8865 9.81659 46.1996 -4.19332 36.2197 1.40217C29.4336 5.20695 27.9005 18 27.0205 24.8324C27.7567 19.1185 22.2981 7.76526 17.1957 5.37176C10.9759 2.45396 2.79757 5.9627 1.13835 12.7109C-1.12602 21.9178 5.56985 32.9387 10.9596 39.838C14.9031 44.8858 19.273 49.698 22.1152 55.4392C25.2414 61.7538 24.7949 67.0044 23.7006 73.5856C26.0916 73.2624 28.1619 70.8591 29.7586 69.1481C39.238 58.9859 47.2614 49.2416 51.5533 35.7106C51.7686 35.035 51.9733 34.3543 52.1664 33.6696Z" fill="#3A4F4B"/>
</svg>
